HIERARCHY
ROOT Hips
{
    OFFSET 0.0 0.0 0.0
    CHANNELS 6 Xposition Yposition Zposition Zrotation Xrotation Yrotation
    JOINT LeftHipJoint
    {
        OFFSET 0.1 0.0 0.0
        CHANNELS 3 Zrotation Xrotation Yrotation
        JOINT LeftUpLeg
        {
            OFFSET 126.53122204583048 0.0 0.0
            CHANNELS 3 Zrotation Xrotation Yrotation
            JOINT LeftLeg
            {
                OFFSET 0.0 0.0 -401.167498721524
                CHANNELS 3 Zrotation Xrotation Yrotation
                JOINT LeftFoot
                {
                    OFFSET 0.0 0.0 -374.07632046953427
                    CHANNELS 3 Zrotation Xrotation Yrotation
                    End Site
                    {
                        OFFSET 0.0 -0.1 0.0
                    }
                }
            }
        }
    }
    JOINT LowerBack
    {
        OFFSET 0.0 0.0 0.1
        CHANNELS 3 Zrotation Xrotation Yrotation
        JOINT Spine
        {
            OFFSET 0.0 0.0 219.11303644832876
            CHANNELS 3 Zrotation Xrotation Yrotation
            JOINT Spine1
            {
                OFFSET 0.0 0.0 256.3158493932272
                CHANNELS 3 Zrotation Xrotation Yrotation
                JOINT LeftShoulder
                {
                    OFFSET 0.1 0.0 0.0
                    CHANNELS 3 Zrotation Xrotation Yrotation
                    JOINT LeftArm
                    {
                        OFFSET 145.9209276729332 0.0 0.0
                        CHANNELS 3 Zrotation Xrotation Yrotation
                        JOINT LeftForeArm
                        {
                            OFFSET 260.3379625126694 0.0 0.0
                            CHANNELS 3 Zrotation Xrotation Yrotation
                            JOINT LeftHand
                            {
                                OFFSET 229.4470706109986 0.0 0.0
                                CHANNELS 3 Zrotation Xrotation Yrotation
                                End Site
                                {
                                    OFFSET 0.1 0.0 0.0
                                }
                            }
                        }
                    }
                }
                JOINT Neck
                {
                    OFFSET 0.0 0.0 0.1
                    CHANNELS 3 Zrotation Xrotation Yrotation
                    JOINT Neck1
                    {
                        OFFSET 0.0 0.0 109.63636535727288
                        CHANNELS 3 Zrotation Xrotation Yrotation
                        End Site
                        {
                            OFFSET 0.0 0.0 116.1464922560724
                        }
                    }
                }
                JOINT RightShoulder
                {
                    OFFSET -0.1 0.0 0.0
                    CHANNELS 3 Zrotation Xrotation Yrotation
                    JOINT RightArm
                    {
                        OFFSET -145.9209276729332 0.0 0.0
                        CHANNELS 3 Zrotation Xrotation Yrotation
                        JOINT RightForeArm
                        {
                            OFFSET -260.3379625126694 0.0 0.0
                            CHANNELS 3 Zrotation Xrotation Yrotation
                            JOINT RightHand
                            {
                                OFFSET -229.4470706109986 0.0 0.0
                                CHANNELS 3 Zrotation Xrotation Yrotation
                                End Site
                                {
                                    OFFSET -0.1 0.0 0.0
                                }
                            }
                        }
                    }
                }
            }
        }
    }
    JOINT RightHipJoint
    {
        OFFSET -0.1 0.0 0.0
        CHANNELS 3 Zrotation Xrotation Yrotation
        JOINT RightUpLeg
        {
            OFFSET -126.53122204583048 0.0 0.0
            CHANNELS 3 Zrotation Xrotation Yrotation
            JOINT RightLeg
            {
                OFFSET 0.0 0.0 -401.167498721524
                CHANNELS 3 Zrotation Xrotation Yrotation
                JOINT RightFoot
                {
                    OFFSET 0.0 0.0 -374.07632046953427
                    CHANNELS 3 Zrotation Xrotation Yrotation
                    End Site
                    {
                        OFFSET 0.0 -0.1 0.0
                    }
                }
            }
        }
    }
}
MOTION
Frames: 4
Frame Time: 0.03333333333333333
0.0 0.0 779.1811229370658 25.371439998983245 1.1186878670103877 3.470945064808227 0.0 0.0 1.6151254241806922e-16 -0.05234908152254877 -16.23634206767692 3.613653475248043 2.359477994557113 31.747593682651424 -4.877999010362775 0.0 0.0 0.0 0.0 0.0 1.6151254241806922e-16 0.009437842298303833 2.8889761618737806 -0.3129449188090091 0.9377228094514947 -1.3914460831941178e-15 1.1386701315752597e-17 0.0 0.0 -2.981770013872047e-16 -24.05087823522072 8.279941399552026 75.89207695787091 -35.04339195572069 9.157736322755587e-15 -1.3159908001755282e-14 0.0 0.0 1.1927080055488188e-15 0.0 0.0 -2.981770013872047e-16 -3.8008741730161706 -11.381998101813695 -1.6410313561467966 0.0 0.0 -2.981770013872047e-16 18.038255558189974 5.9377334134225865 -72.48911480185966 37.03427671272139 2.0346416268716636e-15 1.6089573132201733e-14 0.0 0.0 2.3854160110976376e-15 0.0 0.0 1.6151254241806922e-16 -0.04856726784981274 -13.971821767501948 -1.3971959734964183 -0.716718121290658 30.789447241390974 0.9644401914380417 0.0 0.0 -3.975693351829396e-16
0.0 0.0 779.1811229370658 25.38553735733131 1.1139513607091458 3.564085604253753 0.0 0.0 -2.4848083448933725e-16 -0.059852445246261606 -16.376875320876554 3.5162677865467438 2.3362462210588157 31.988187911081454 -4.891969027929199 0.0 0.0 -3.975693351829396e-16 0.0 0.0 -2.4848083448933725e-16 0.01071661525417517 2.9089699027090083 -0.3565034157694855 0.8078646293499575 -2.0298395802349194e-16 -5.949377727793292e-16 0.0 0.0 -3.975693351829396e-16 -23.493318985821936 7.623557084111826 75.29654118488304 -36.23981637983805 -1.0688920327889472e-14 2.2437710237849394e-14 -2.2069531490250793e-32 -1.5902773407317582e-15 -1.5902773407317582e-15 0.0 0.0 -3.975693351829396e-16 -3.6409002743132644 -11.425052499506789 -1.6535409623102497 0.0 0.0 -3.975693351829396e-16 17.225825495524752 5.741808480960248 -71.96037597521314 38.87177105302818 2.823611804642536e-15 -1.1114597673322084e-14 0.0 0.0 0.0 0.0 0.0 -2.4848083448933725e-16 -0.05479891923760709 -14.044056203473705 -1.5011937766836652 -0.7686236307510126 30.94180628800537 0.9350299489549334 0.0 0.0 7.951386703658792e-16
0.0 0.0 779.1811229370658 25.434600309647745 1.2647503513531626 3.7257820456336113 0.0 0.0 -1.3666445896913547e-16 -0.11170638549611905 -16.6360565794751 3.304722074449564 2.3286205767798682 32.14146762480494 -4.886954009625393 -3.310429723537619e-32 -3.1805546814635168e-15 -1.1927080055488188e-15 0.0 0.0 -1.3666445896913547e-16 0.018642402516277308 2.804087667798374 -0.43666423970396695 0.7494319824636442 -7.970717375842818e-16 -2.9297043265807015e-16 0.0 0.0 1.987846675914698e-16 -22.134660210384666 7.085069221184034 74.59812468122068 -38.62207741790575 1.1175347521537835e-15 -3.18920844627628e-15 0.0 0.0 3.975693351829396e-16 0.0 0.0 1.987846675914698e-16 -3.4660275746866063 -11.435667021459363 -1.6511872668585785 0.0 0.0 1.987846675914698e-16 16.282209463333448 5.275136195250383 -71.38850362280455 40.71775234492161 3.3195375454904687e-15 8.94561474802568e-15 0.0 0.0 1.5902773407317584e-15 0.0 0.0 -1.3666445896913547e-16 -0.09946725471614876 -14.371846654800203 -1.7226428599085977 -0.8086013295600463 31.33500233933289 0.9894904935525082 0.0 0.0 0.0
0.0 0.0 779.1811229370658 25.39646403108475 1.3144805738463985 3.896717375249892 0.0 0.0 3.851452934584727e-16 -0.16946474583642246 -16.859582861723556 3.0922245667309625 2.316216349864233 32.134704469270346 -4.863888158890633 -2.2069531490250793e-32 -3.1805546814635168e-15 -7.951386703658792e-16 0.0 0.0 3.851452934584727e-16 0.027343720807810484 2.767456982336786 -0.6016638985631984 0.9450909217721233 -6.045309847553916e-16 -9.889711759358892e-16 0.0 0.0 9.93923337957349e-17 -20.064328906885017 5.992305796827266 73.8282272530863 -41.19625277919161 -3.271945893793868e-15 4.185475429349804e-15 7.724336021587778e-32 1.5902773407317582e-15 -5.5659706925611536e-15 0.0 0.0 9.93923337957349e-17 -3.4456818680776964 -11.513005404429979 -1.5080734133790137 0.0 0.0 9.93923337957349e-17 14.820433479988685 3.8399784718565213 -70.36607192164378 42.51706097720143 8.234651316214686e-15 3.6218700079654495e-15 0.0 0.0 -1.1927080055488188e-15 0.0 0.0 3.851452934584727e-16 -0.14904187426242985 -14.582340265474713 -1.942536366963286 -0.833383724247169 31.5664404450951 0.9797978767724405 0.0 0.0 7.951386703658792e-16
